<svg width="30" height="30" viewBox="0 0 30 23" fill="none" xmlns="http://www.w3.org/2000/svg">
<path d="M11.1791 6.47386C8.58048 6.47386 6.47386 8.58047 6.47386 11.1791V15.8844H8.04228V11.1791H10.3949V18.237H4.12124V11.1791C4.12124 7.28116 7.28116 4.12124 11.1791 4.12124V6.47386Z" fill="white"/>
<path d="M11.1791 2.55282C6.41494 2.55282 2.55282 6.41494 2.55282 11.1791V19.8054H11.9633V11.1791H14.3159V22.158H0.200195V11.1791C0.200195 5.11562 5.11562 0.200195 11.1791 0.200195V2.55282Z" fill="white"/>
<path d="M26.8637 6.47386C24.265 6.47386 22.1584 8.58047 22.1584 11.1791V15.8844H23.7269V11.1791H26.0795V18.237H19.8058V11.1791C19.8058 7.28116 22.9657 4.12124 26.8637 4.12124V6.47386Z" fill="white"/>
<path d="M26.8637 2.55282C22.0995 2.55282 18.2374 6.41494 18.2374 11.1791V19.8054H27.6479V11.1791H30.0005V22.158H15.8848V11.1791C15.8848 5.11562 20.8002 0.200195 26.8637 0.200195V2.55282Z" fill="white"/>
</svg>
