<svg width="287" height="131" viewBox="0 0 287 131" fill="none" xmlns="http://www.w3.org/2000/svg">
<path d="M0 9.26V0H54.74V9.25H0V9.26ZM0 114.55V105.3H13.78V25.6H0V16.35H23.63V114.56H0V114.55ZM0 130.89V121.64H54.74V130.89H0ZM31.11 114.55V16.34H54.74V25.59H40.96V105.29H54.74V114.54H31.11V114.55Z" fill="black"/>
<path d="M64.95 46.03V36.78H103.93V41.51C110.03 37.38 118.3 34.42 128.94 34.42C148.43 34.42 162.02 46.82 162.02 65.92V105.3H173.83V114.55H152.17V69.86C152.17 53.12 141.93 43.87 126.18 43.87C117.91 43.87 110.62 46.23 103.93 49.97V57.65C109.84 54.11 116.92 51.15 124.21 51.15C136.81 51.15 144.69 57.65 144.69 71.23V114.55H124.02V105.3H134.85V74.19C134.85 64.74 130.91 60.8 122.05 60.8C114.77 60.8 107.28 65.13 103.94 67.69V105.3H114.77V114.55H94.1V46.03H64.95ZM64.95 114.55V105.3H76.76V62.38H64.95V53.13H86.61V114.56H64.95V114.55ZM64.95 130.89V121.64H114.76V130.89H64.95ZM124.02 130.89V121.64H173.83V130.89H124.02Z" fill="black"/>
<path d="M221.35 105.3H233.16V114.55H211.5V9.26H182.36V0H221.35V68.08H230.8L243.8 53.12H256.6L235.14 77.34H221.36V84.43H235.14L258.18 114.55H245.97L230.4 93.68H221.34V105.3H221.35ZM204.02 16.34V114.55H182.36V105.3H194.17V25.6H182.36V16.35H204.02V16.34ZM182.36 130.89V121.64H233.16V130.89H182.36ZM284.74 36.78V46.03H234.53V36.78H284.74ZM272.93 105.3H286.71V114.55H268L241.81 80.88L266.42 53.12H284.73V62.37H270.75L254.01 81.27L272.93 105.3ZM245.96 130.89V121.64H286.72V130.89H245.96Z" fill="black"/>
</svg>
